<?xml version="1.0" standalone="no"?>
<!DOCTYPE svg PUBLIC "-//W3C//DTD SVG 20010904//EN"
 "http://www.w3.org/TR/2001/REC-SVG-20010904/DTD/svg10.dtd">
<svg version="1.0" xmlns="http://www.w3.org/2000/svg"
 width="3508.000000pt" height="2481.000000pt" viewBox="0 0 3508.000000 2481.000000"
 preserveAspectRatio="xMidYMid meet">

<g transform="translate(0.000000,2481.000000) scale(0.100000,-0.100000)"
fill="#000000" stroke="none">
<path d="M9730 22104 c-1313 -33 -2611 -483 -3690 -1282 -529 -392 -1029 -894
-1415 -1421 -645 -882 -1063 -1885 -1229 -2952 -23 -143 -25 -153 -57 -187
l-34 -35 33 23 33 22 -5 -33 c-13 -71 -36 -332 -47 -524 -12 -216 -7 -635 12
-840 6 -66 12 -167 14 -225 1 -58 11 -169 21 -248 15 -124 16 -145 3 -153 -12
-7 -12 -9 1 -9 33 -1 42 -23 75 -190 220 -1087 705 -2103 1408 -2945 593 -710
1335 -1293 2137 -1679 167 -80 421 -188 427 -182 2 2 -36 26 -85 54 -211 120
-555 350 -772 517 -718 551 -1316 1219 -1772 1981 -112 186 -213 374 -202 374
4 0 0 6 -11 13 -10 8 -15 19 -11 25 4 7 2 12 -4 12 -6 0 -8 5 -5 10 3 6 1 10
-5 10 -6 0 -8 5 -5 10 3 6 1 10 -5 10 -6 0 -8 5 -5 10 3 6 1 10 -5 10 -6 0 -8
5 -5 10 3 6 1 10 -5 10 -6 0 -8 5 -5 10 3 6 1 10 -5 10 -6 0 -9 4 -6 9 3 5
-10 43 -29 84 -183 402 -405 1109 -405 1288 0 95 25 143 88 171 63 28 139 20
314 -32 75 -22 239 -67 365 -99 125 -33 248 -68 273 -79 24 -12 47 -19 51 -16
4 2 17 -51 30 -119 30 -168 117 -473 186 -661 31 -85 58 -154 60 -152 2 2 -8
86 -21 187 -14 101 -32 252 -40 334 -15 156 -28 364 -17 285 5 -36 11 -47 34
-58 26 -12 34 -11 84 14 31 15 73 44 94 65 l39 39 163 -29 c411 -74 672 -101
1038 -108 315 -6 476 3 684 37 121 21 304 64 230 55 -494 -61 -893 -42 -1455
71 -321 64 -846 205 -848 227 0 7 -6 41 -13 75 -34 168 85 1057 216 1612 107
458 328 1152 440 1386 46 95 115 165 190 193 158 59 582 91 1216 91 531 0 803
-15 1404 -80 149 -16 331 -34 405 -40 725 -58 1420 -7 2054 151 183 46 676
206 676 220 0 5 13 9 28 9 31 0 405 181 567 275 296 171 605 397 605 442 0 20
-24 12 -142 -45 -54 -27 -98 -47 -98 -45 0 1 28 21 63 44 216 146 518 393 897
733 421 377 515 448 680 512 l35 14 -40 -6 c-99 -15 -257 -88 -420 -195 -60
-39 -249 -171 -420 -294 -561 -401 -844 -579 -1245 -779 -667 -332 -1304 -513
-2090 -592 -215 -21 -776 -30 -1025 -15 -110 6 -354 27 -542 46 -588 60 -735
68 -1218 68 -323 0 -497 -4 -655 -17 -197 -15 -491 -46 -592 -62 l-41 -7 6 46
c9 63 32 115 212 480 168 341 226 438 299 505 56 52 101 73 216 102 46 12 93
27 105 33 17 10 9 13 -55 18 -41 3 83 3 275 1 993 -13 1969 78 2560 238 120
33 108 32 -125 -5 -200 -32 -481 -61 -742 -76 -271 -15 -1144 -6 -1433 15
-467 34 -603 48 -598 62 3 7 0 29 -7 49 -15 45 -35 45 -95 0 l-46 -36 27 48
c157 272 431 714 608 978 l80 120 -52 -43 c-66 -56 -309 -311 -448 -472 -157
-182 -335 -407 -480 -608 -1 -2 -91 9 -200 23 -513 67 -1215 183 -1191 197 8
4 18 23 21 41 11 61 85 161 294 399 482 552 1081 1045 1727 1423 203 119 539
291 832 424 265 121 380 176 400 193 28 23 12 31 -54 26 l-68 -6 65 25 c101
38 422 129 628 178 328 78 706 141 1001 166 79 7 135 16 125 19 -23 9 -358 17
-514 14z m-1410 -444 c-8 -5 -19 -10 -25 -10 -5 0 -3 5 5 10 8 5 20 10 25 10
6 0 3 -5 -5 -10z m-300 -120 c-8 -5 -19 -10 -25 -10 -5 0 -3 5 5 10 8 5 20 10
25 10 6 0 3 -5 -5 -10z m-70 -30 c-8 -5 -19 -10 -25 -10 -5 0 -3 5 5 10 8 5
20 10 25 10 6 0 3 -5 -5 -10z m-100 -45 c-14 -8 -29 -14 -35 -14 -5 0 1 6 15
14 14 8 30 14 35 14 6 0 -1 -6 -15 -14z m-130 -60 c-14 -8 -29 -14 -35 -14 -5
0 1 6 15 14 14 8 30 14 35 14 6 0 -1 -6 -15 -14z m-210 -100 c0 -2 -13 -11
-30 -20 -38 -19 -40 -11 -2 9 31 17 32 18 32 11z m-150 -80 c0 -2 -10 -9 -22
-15 -22 -11 -22 -10 -4 4 21 17 26 19 26 11z m-810 -519 c0 -2 -8 -10 -17 -17
-16 -13 -17 -12 -4 4 13 16 21 21 21 13z m-130 -100 c0 -2 -8 -10 -17 -17 -16
-13 -17 -12 -4 4 13 16 21 21 21 13z m-50 -39 c0 -2 -10 -12 -22 -23 l-23 -19
19 23 c18 21 26 27 26 19z m-60 -51 c0 -2 -8 -10 -17 -17 -16 -13 -17 -12 -4
4 13 16 21 21 21 13z m-60 -49 c0 -2 -10 -12 -22 -23 l-23 -19 19 23 c18 21
26 27 26 19z m-70 -60 c0 -2 -12 -14 -27 -28 l-28 -24 24 28 c23 25 31 32 31
24z m-100 -90 c0 -2 -12 -14 -27 -28 l-28 -24 24 28 c23 25 31 32 31 24z
m-120 -110 c0 -1 -53 -54 -117 -117 l-118 -115 115 118 c107 109 120 122 120
114z m-260 -260 c0 -2 -12 -14 -27 -28 l-28 -24 24 28 c23 25 31 32 31 24z
m-140 -151 c0 -2 -8 -10 -17 -17 -16 -13 -17 -12 -4 4 13 16 21 21 21 13z
m-383 -582 c-3 -3 -12 -4 -19 -1 -8 3 -5 6 6 6 11 1 17 -2 13 -5z m60 -10 c-3
-3 -12 -4 -19 -1 -8 3 -5 6 6 6 11 1 17 -2 13 -5z m1781 -261 c-10 -2 -26 -2
-35 0 -10 3 -2 5 17 5 19 0 27 -2 18 -5z m-2101 -49 c-3 -3 -12 -4 -19 -1 -8
3 -5 6 6 6 11 1 17 -2 13 -5z m76 -11 c-7 -2 -19 -2 -25 0 -7 3 -2 5 12 5 14
0 19 -2 13 -5z m80 -10 c-7 -2 -19 -2 -25 0 -7 3 -2 5 12 5 14 0 19 -2 13 -5z
m80 -10 c-7 -2 -19 -2 -25 0 -7 3 -2 5 12 5 14 0 19 -2 13 -5z m90 -10 c-7 -2
-21 -2 -30 0 -10 3 -4 5 12 5 17 0 24 -2 18 -5z m90 -10 c-7 -2 -21 -2 -30 0
-10 3 -4 5 12 5 17 0 24 -2 18 -5z m90 -10 c-7 -2 -21 -2 -30 0 -10 3 -4 5 12
5 17 0 24 -2 18 -5z m90 -10 c-7 -2 -21 -2 -30 0 -10 3 -4 5 12 5 17 0 24 -2
18 -5z m100 -10 c-7 -2 -21 -2 -30 0 -10 3 -4 5 12 5 17 0 24 -2 18 -5z m105
-10 c-10 -2 -26 -2 -35 0 -10 3 -2 5 17 5 19 0 27 -2 18 -5z m-328 -23 c199
-22 558 -54 795 -71 88 -6 181 -17 208 -24 47 -12 48 -12 67 15 26 36 25 38
-7 43 -22 3 -20 4 10 6 28 1 36 -2 31 -11 -4 -7 -33 -51 -64 -98 -187 -280
-402 -660 -566 -996 -111 -227 -114 -232 -148 -238 -92 -17 -433 -114 -617
-176 -283 -94 -473 -172 -748 -306 l-234 -114 7 60 c9 80 61 264 135 483 130
381 317 798 511 1137 119 207 177 269 278 296 66 18 142 17 342 -6z m438 13
c-10 -2 -28 -2 -40 0 -13 2 -5 4 17 4 22 1 32 -1 23 -4z m110 -10 c-10 -2 -26
-2 -35 0 -10 3 -2 5 17 5 19 0 27 -2 18 -5z m120 -10 c-10 -2 -26 -2 -35 0
-10 3 -2 5 17 5 19 0 27 -2 18 -5z m140 -10 c-10 -2 -28 -2 -40 0 -13 2 -5 4
17 4 22 1 32 -1 23 -4z m145 -10 c-13 -2 -33 -2 -45 0 -13 2 -3 4 22 4 25 0
35 -2 23 -4z m560 -30 c-18 -2 -48 -2 -65 0 -18 2 -4 4 32 4 36 0 50 -2 33 -4z
m-183 -153 c-6 -11 -13 -20 -16 -20 -2 0 0 9 6 20 6 11 13 20 16 20 2 0 0 -9
-6 -20z m-70 -130 c-6 -11 -13 -20 -16 -20 -2 0 0 9 6 20 6 11 13 20 16 20 2
0 0 -9 -6 -20z m-182 -355 c-40 -79 -74 -143 -76 -141 -4 5 136 286 143 286 3
0 -28 -65 -67 -145z m6417 -71 c-26 -20 -55 -36 -55 -30 0 5 63 46 70 46 3 -1
-4 -8 -15 -16z m-95 -59 c0 -2 -10 -9 -22 -15 -22 -11 -22 -10 -4 4 21 17 26
19 26 11z m-150 -90 c0 -2 -10 -9 -22 -15 -22 -11 -22 -10 -4 4 21 17 26 19
26 11z m-70 -40 c0 -2 -13 -11 -30 -20 -38 -19 -40 -11 -2 9 31 17 32 18 32
11z m-6269 -82 c-12 -20 -14 -14 -5 12 4 9 9 14 11 11 3 -2 0 -13 -6 -23z
m6159 22 c0 -6 -237 -125 -247 -124 -6 0 234 126 245 128 1 1 2 -1 2 -4z
m-6219 -152 c-12 -20 -14 -14 -5 12 4 9 9 14 11 11 3 -2 0 -13 -6 -23z m5909
-3 c-8 -5 -19 -10 -25 -10 -5 0 -3 5 5 10 8 5 20 10 25 10 6 0 3 -5 -5 -10z
m-90 -40 c-8 -5 -19 -10 -25 -10 -5 0 -3 5 5 10 8 5 20 10 25 10 6 0 3 -5 -5
-10z m-5856 -55 c3 -8 1 -15 -4 -15 -6 0 -10 7 -10 15 0 8 2 15 4 15 2 0 6 -7
10 -15z m129 8 c-7 -2 -19 -2 -25 0 -7 3 -2 5 12 5 14 0 19 -2 13 -5z m-60
-10 c-7 -2 -19 -2 -25 0 -7 3 -2 5 12 5 14 0 19 -2 13 -5z m4974 -219 c-3 -3
-12 -4 -19 -1 -8 3 -5 6 6 6 11 1 17 -2 13 -5z m-40 -10 c-3 -3 -12 -4 -19 -1
-8 3 -5 6 6 6 11 1 17 -2 13 -5z m-3704 -21 c-84 -2 -222 -2 -305 0 -84 1 -16
3 152 3 168 0 236 -2 153 -3z m-605 -10 c-16 -2 -40 -2 -55 0 -16 2 -3 4 27 4
30 0 43 -2 28 -4z m1000 0 c-16 -2 -40 -2 -55 0 -16 2 -3 4 27 4 30 0 43 -2
28 -4z m3179 1 c-3 -3 -12 -4 -19 -1 -8 3 -5 6 6 6 11 1 17 -2 13 -5z m-4359
-11 c-10 -2 -28 -2 -40 0 -13 2 -5 4 17 4 22 1 32 -1 23 -4z m1365 0 c-13 -2
-35 -2 -50 0 -16 2 -5 4 22 4 28 0 40 -2 28 -4z m2944 1 c-3 -3 -12 -4 -19 -1
-8 3 -5 6 6 6 11 1 17 -2 13 -5z m-4449 -11 c-10 -2 -26 -2 -35 0 -10 3 -2 5
17 5 19 0 27 -2 18 -5z m1640 0 c-10 -2 -26 -2 -35 0 -10 3 -2 5 17 5 19 0 27
-2 18 -5z m2759 1 c-3 -3 -12 -4 -19 -1 -8 3 -5 6 6 6 11 1 17 -2 13 -5z
m-4519 -11 c-10 -2 -26 -2 -35 0 -10 3 -2 5 17 5 19 0 27 -2 18 -5z m1880 0
c-10 -2 -26 -2 -35 0 -10 3 -2 5 17 5 19 0 27 -2 18 -5z m2589 1 c-3 -3 -12
-4 -19 -1 -8 3 -5 6 6 6 11 1 17 -2 13 -5z m-4569 -11 c-10 -2 -26 -2 -35 0
-10 3 -2 5 17 5 19 0 27 -2 18 -5z m2100 0 c-10 -2 -26 -2 -35 0 -10 3 -2 5
17 5 19 0 27 -2 18 -5z m2419 1 c-3 -3 -12 -4 -19 -1 -8 3 -5 6 6 6 11 1 17
-2 13 -5z m-4614 -11 c-7 -2 -21 -2 -30 0 -10 3 -4 5 12 5 17 0 24 -2 18 -5z
m2300 0 c-7 -2 -21 -2 -30 0 -10 3 -4 5 12 5 17 0 24 -2 18 -5z m2254 1 c-3
-3 -12 -4 -19 -1 -8 3 -5 6 6 6 11 1 17 -2 13 -5z m-4644 -11 c-7 -2 -19 -2
-25 0 -7 3 -2 5 12 5 14 0 19 -2 13 -5z m2480 0 c-7 -2 -21 -2 -30 0 -10 3 -4
5 12 5 17 0 24 -2 18 -5z m2104 1 c-3 -3 -12 -4 -19 -1 -8 3 -5 6 6 6 11 1 17
-2 13 -5z m-4670 -10 c-3 -3 -12 -4 -19 -1 -8 3 -5 6 6 6 11 1 17 -2 13 -5z
m2656 -1 c-7 -2 -21 -2 -30 0 -10 3 -4 5 12 5 17 0 24 -2 18 -5z m1950 0 c-7
-2 -19 -2 -25 0 -7 3 -2 5 12 5 14 0 19 -2 13 -5z m-1860 -10 c-7 -2 -21 -2
-30 0 -10 3 -4 5 12 5 17 0 24 -2 18 -5z m1790 0 c-7 -2 -19 -2 -25 0 -7 3 -2
5 12 5 14 0 19 -2 13 -5z m-1700 -10 c-7 -2 -19 -2 -25 0 -7 3 -2 5 12 5 14 0
19 -2 13 -5z m1630 0 c-7 -2 -19 -2 -25 0 -7 3 -2 5 12 5 14 0 19 -2 13 -5z
m-1535 -10 c-10 -2 -26 -2 -35 0 -10 3 -2 5 17 5 19 0 27 -2 18 -5z m1455 0
c-7 -2 -21 -2 -30 0 -10 3 -4 5 12 5 17 0 24 -2 18 -5z m-1345 -10 c-10 -2
-26 -2 -35 0 -10 3 -2 5 17 5 19 0 27 -2 18 -5z m1240 0 c-10 -2 -26 -2 -35 0
-10 3 -2 5 17 5 19 0 27 -2 18 -5z m-1105 -10 c-13 -2 -33 -2 -45 0 -13 2 -3
4 22 4 25 0 35 -2 23 -4z m985 0 c-10 -2 -28 -2 -40 0 -13 2 -5 4 17 4 22 1
32 -1 23 -4z m-800 -10 c-15 -2 -42 -2 -60 0 -18 2 -6 4 27 4 33 0 48 -2 33
-4z m640 0 c-16 -2 -40 -2 -55 0 -16 2 -3 4 27 4 30 0 43 -2 28 -4z m-290 -10
c-27 -2 -69 -2 -95 0 -27 2 -5 3 47 3 52 0 74 -1 48 -3z m-4178 -12 c0 -4 -11
-6 -25 -3 -14 2 -25 6 -25 8 0 2 11 4 25 4 14 0 25 -4 25 -9z m-73 -7 c-3 -3
-12 -4 -19 -1 -8 3 -5 6 6 6 11 1 17 -2 13 -5z m-50 -10 c-3 -3 -12 -4 -19 -1
-8 3 -5 6 6 6 11 1 17 -2 13 -5z m-44 -11 c-7 -2 -19 -2 -25 0 -7 3 -2 5 12 5
14 0 19 -2 13 -5z m148 -20 c-12 -20 -14 -14 -5 12 4 9 9 14 11 11 3 -2 0 -13
-6 -23z m-194 11 c-3 -3 -12 -4 -19 -1 -8 3 -5 6 6 6 11 1 17 -2 13 -5z m-50
-10 c-3 -3 -12 -4 -19 -1 -8 3 -5 6 6 6 11 1 17 -2 13 -5z m-40 -10 c-3 -3
-12 -4 -19 -1 -8 3 -5 6 6 6 11 1 17 -2 13 -5z m-40 -10 c-3 -3 -12 -4 -19 -1
-8 3 -5 6 6 6 11 1 17 -2 13 -5z m-64 -25 c-67 -43 -37 -48 139 -23 62 9 136
14 165 11 46 -5 53 -3 58 15 4 11 9 18 11 16 2 -2 -13 -47 -32 -99 -238 -632
-378 -1220 -439 -1839 -31 -317 -29 -869 4 -1105 5 -33 8 -61 6 -63 -14 -16
-1154 433 -1163 459 -2 5 -9 6 -14 3 -6 -4 -8 -3 -5 3 4 6 0 46 -8 89 -23 126
-35 363 -35 690 0 324 9 495 41 769 39 342 62 434 134 546 65 101 77 128 73
165 l-4 33 156 62 c200 79 464 166 710 234 219 60 253 66 203 34z m-1103 -204
c0 -2 -13 -11 -30 -20 -38 -19 -40 -11 -2 9 31 17 32 18 32 11z m-10 -155 c-8
-5 -19 -10 -25 -10 -5 0 -3 5 5 10 8 5 20 10 25 10 6 0 3 -5 -5 -10z m-183
-252 c-3 -8 -6 -5 -6 6 -1 11 2 17 5 13 3 -3 4 -12 1 -19z m-10 -60 c-3 -8 -6
-5 -6 6 -1 11 2 17 5 13 3 -3 4 -12 1 -19z m-10 -70 c-3 -8 -6 -5 -6 6 -1 11
2 17 5 13 3 -3 4 -12 1 -19z m-10 -70 c-3 -7 -5 -2 -5 12 0 14 2 19 5 13 2 -7
2 -19 0 -25z m-10 -80 c-3 -7 -5 -2 -5 12 0 14 2 19 5 13 2 -7 2 -19 0 -25z
m-10 -85 c-3 -10 -5 -4 -5 12 0 17 2 24 5 18 2 -7 2 -21 0 -30z m-10 -90 c-3
-10 -5 -4 -5 12 0 17 2 24 5 18 2 -7 2 -21 0 -30z m-10 -120 c-3 -10 -5 -2 -5
17 0 19 2 27 5 18 2 -10 2 -26 0 -35z m1750 -15 c-3 -8 -6 -5 -6 6 -1 11 2 17
5 13 3 -3 4 -12 1 -19z m-10 -40 c-3 -8 -6 -5 -6 6 -1 11 2 17 5 13 3 -3 4
-12 1 -19z m-10 -40 c-3 -8 -6 -5 -6 6 -1 11 2 17 5 13 3 -3 4 -12 1 -19z
m-1740 -50 c-2 -13 -4 -3 -4 22 0 25 2 35 4 23 2 -13 2 -33 0 -45z m1730 10
c-3 -8 -6 -5 -6 6 -1 11 2 17 5 13 3 -3 4 -12 1 -19z m-30 -130 c-3 -8 -6 -5
-6 6 -1 11 2 17 5 13 3 -3 4 -12 1 -19z m-1710 -150 c-2 -29 -3 -6 -3 52 0 58
1 81 3 53 2 -29 2 -77 0 -105z m1690 60 c-3 -8 -6 -5 -6 6 -1 11 2 17 5 13 3
-3 4 -12 1 -19z m-10 -50 c-3 -8 -6 -5 -6 6 -1 11 2 17 5 13 3 -3 4 -12 1 -19z
m-10 -50 c-3 -8 -6 -5 -6 6 -1 11 2 17 5 13 3 -3 4 -12 1 -19z m-10 -50 c-3
-8 -6 -5 -6 6 -1 11 2 17 5 13 3 -3 4 -12 1 -19z m-10 -50 c-3 -8 -6 -5 -6 6
-1 11 2 17 5 13 3 -3 4 -12 1 -19z m-10 -60 c-3 -8 -6 -5 -6 6 -1 11 2 17 5
13 3 -3 4 -12 1 -19z m-1640 -150 c-2 -29 -3 -6 -3 52 0 58 1 81 3 53 2 -29 2
-77 0 -105z m1630 100 c-3 -8 -6 -5 -6 6 -1 11 2 17 5 13 3 -3 4 -12 1 -19z
m-10 -60 c-3 -8 -6 -5 -6 6 -1 11 2 17 5 13 3 -3 4 -12 1 -19z m-10 -70 c-3
-7 -5 -2 -5 12 0 14 2 19 5 13 2 -7 2 -19 0 -25z m-10 -60 c-3 -8 -6 -5 -6 6
-1 11 2 17 5 13 3 -3 4 -12 1 -19z m-10 -70 c-3 -8 -6 -5 -6 6 -1 11 2 17 5
13 3 -3 4 -12 1 -19z m-1580 -50 c-2 -13 -4 -3 -4 22 0 25 2 35 4 23 2 -13 2
-33 0 -45z m1570 -30 c-3 -7 -5 -2 -5 12 0 14 2 19 5 13 2 -7 2 -19 0 -25z
m-10 -85 c-3 -10 -5 -4 -5 12 0 17 2 24 5 18 2 -7 2 -21 0 -30z m-1550 -20
c-3 -10 -5 -2 -5 17 0 19 2 27 5 18 2 -10 2 -26 0 -35z m1540 -70 c-3 -10 -5
-4 -5 12 0 17 2 24 5 18 2 -7 2 -21 0 -30z m-1530 -40 c-3 -10 -5 -2 -5 17 0
19 2 27 5 18 2 -10 2 -26 0 -35z m1520 -70 c-3 -10 -5 -2 -5 17 0 19 2 27 5
18 2 -10 2 -26 0 -35z m-1510 -20 c-3 -10 -5 -4 -5 12 0 17 2 24 5 18 2 -7 2
-21 0 -30z m1500 -80 c-3 -10 -5 -2 -5 17 0 19 2 27 5 18 2 -10 2 -26 0 -35z
m-1490 -5 c-3 -7 -5 -2 -5 12 0 14 2 19 5 13 2 -7 2 -19 0 -25z m1480 -180
c-2 -18 -4 -6 -4 27 0 33 2 48 4 33 2 -15 2 -42 0 -60z m-10 -330 c-1 -40 -3
-8 -3 72 0 80 2 112 3 73 2 -40 2 -106 0 -145z m-830 -64 c-3 -3 -12 -4 -19
-1 -8 3 -5 6 6 6 11 1 17 -2 13 -5z m-530 -56 c-3 -8 -6 -5 -6 6 -1 11 2 17 5
13 3 -3 4 -12 1 -19z m810 -24 c-3 -3 -12 -4 -19 -1 -8 3 -5 6 6 6 11 1 17 -2
13 -5z m110 -30 c-3 -3 -12 -4 -19 -1 -8 3 -5 6 6 6 11 1 17 -2 13 -5z m40
-10 c-3 -3 -12 -4 -19 -1 -8 3 -5 6 6 6 11 1 17 -2 13 -5z m40 -10 c-3 -3 -12
-4 -19 -1 -8 3 -5 6 6 6 11 1 17 -2 13 -5z m410 -100 c-3 -3 -12 -4 -19 -1 -8
3 -5 6 6 6 11 1 17 -2 13 -5z m90 -20 c-3 -3 -12 -4 -19 -1 -8 3 -5 6 6 6 11
1 17 -2 13 -5z m50 -10 c-3 -3 -12 -4 -19 -1 -8 3 -5 6 6 6 11 1 17 -2 13 -5z
m50 -10 c-3 -3 -12 -4 -19 -1 -8 3 -5 6 6 6 11 1 17 -2 13 -5z m-1520 -106
c-3 -8 -6 -5 -6 6 -1 11 2 17 5 13 3 -3 4 -12 1 -19z m20 -70 c-3 -8 -6 -5 -6
6 -1 11 2 17 5 13 3 -3 4 -12 1 -19z m153 -453 c0 -5 -5 -3 -10 5 -5 8 -10 20
-10 25 0 6 5 3 10 -5 5 -8 10 -19 10 -25z m80 -210 c0 -5 -5 -3 -10 5 -5 8
-10 20 -10 25 0 6 5 3 10 -5 5 -8 10 -19 10 -25z m50 -120 c0 -5 -5 -3 -10 5
-5 8 -10 20 -10 25 0 6 5 3 10 -5 5 -8 10 -19 10 -25z m39 -90 c0 -5 -6 1 -14
15 -8 14 -14 30 -14 35 0 6 6 -1 14 -15 8 -14 14 -29 14 -35z m50 -110 c0 -5
-6 1 -14 15 -8 14 -14 30 -14 35 0 6 6 -1 14 -15 8 -14 14 -29 14 -35z"/>
<path d="M10098 18983 c7 -3 16 -2 19 1 4 3 -2 6 -13 5 -11 0 -14 -3 -6 -6z"/>
<path d="M12087 17313 c297 -608 309 -1317 31 -1946 -101 -231 -295 -515 -457
-672 l-41 -39 2 139 2 140 3 -129 4 -130 44 44 c36 35 42 47 35 64 -4 12 -20
89 -35 171 -28 156 -91 362 -144 475 -16 36 -30 61 -31 55 0 -5 -27 45 -59
112 -65 134 -122 226 -212 344 -62 82 -225 256 -232 249 -3 -3 3 -44 13 -92
71 -344 47 -728 -66 -1075 -43 -134 -162 -378 -242 -498 -114 -170 -264 -339
-407 -458 l-60 -50 48 5 c26 3 47 3 47 1 0 -3 -16 -32 -36 -64 -63 -105 -155
-307 -199 -442 -77 -237 -108 -439 -108 -727 -3 -838 501 -1633 1265 -2000 54
-26 95 -50 91 -54 -4 -4 1 -4 11 0 13 5 17 4 13 -3 -4 -6 0 -14 9 -17 24 -9
31 -7 14 5 -11 8 -9 9 10 3 36 -9 62 -27 30 -19 -51 12 69 -44 170 -80 217
-75 384 -109 616 -125 515 -35 1022 114 1440 422 140 104 378 341 480 480 178
242 316 540 384 833 31 133 59 349 71 540 22 381 -26 666 -182 1066 -89 229
-115 321 -144 509 -28 180 -29 186 -63 222 l-25 27 6 168 c3 92 10 186 16 208
5 22 8 41 6 43 -7 7 -172 -166 -222 -233 -209 -279 -307 -575 -308 -933 0 -94
-3 -172 -6 -172 -14 0 -62 74 -94 143 -98 214 -116 465 -60 835 72 480 54 810
-65 1188 -40 124 -120 315 -130 309 -10 -6 -22 24 -14 36 3 5 0 9 -6 9 -6 0
-9 4 -6 9 4 5 2 11 -3 13 -5 1 -34 53 -64 114 -184 369 -494 704 -857 929 -80
49 -324 175 -340 175 -3 0 23 -57 57 -127z m1253 -1208 c0 -5 -5 -3 -10 5 -5
8 -10 20 -10 25 0 6 5 3 10 -5 5 -8 10 -19 10 -25z m67 -217 c-3 -8 -6 -5 -6
6 -1 11 2 17 5 13 3 -3 4 -12 1 -19z m20 -80 c-3 -8 -6 -5 -6 6 -1 11 2 17 5
13 3 -3 4 -12 1 -19z m10 -40 c-3 -8 -6 -5 -6 6 -1 11 2 17 5 13 3 -3 4 -12 1
-19z m10 -50 c-3 -8 -6 -5 -6 6 -1 11 2 17 5 13 3 -3 4 -12 1 -19z m10 -50
c-3 -8 -6 -5 -6 6 -1 11 2 17 5 13 3 -3 4 -12 1 -19z m10 -70 c-3 -7 -5 -2 -5
12 0 14 2 19 5 13 2 -7 2 -19 0 -25z m10 -75 c-3 -10 -5 -4 -5 12 0 17 2 24 5
18 2 -7 2 -21 0 -30z m10 -125 c-2 -13 -4 -3 -4 22 0 25 2 35 4 23 2 -13 2
-33 0 -45z m-1957 7 c0 -5 -5 -3 -10 5 -5 8 -10 20 -10 25 0 6 5 3 10 -5 5 -8
10 -19 10 -25z m19 -65 c0 -9 -4 -8 -9 5 -5 11 -9 27 -9 35 0 9 4 8 9 -5 5
-11 9 -27 9 -35z m18 -72 c-3 -8 -6 -5 -6 6 -1 11 2 17 5 13 3 -3 4 -12 1 -19z
m10 -40 c-3 -8 -6 -5 -6 6 -1 11 2 17 5 13 3 -3 4 -12 1 -19z m10 -50 c-3 -7
-5 -2 -5 12 0 14 2 19 5 13 2 -7 2 -19 0 -25z m10 -50 c-3 -7 -5 -2 -5 12 0
14 2 19 5 13 2 -7 2 -19 0 -25z m1890 -40 c-2 -13 -4 -5 -4 17 -1 22 1 32 4
23 2 -10 2 -28 0 -40z m-1880 -15 c-3 -10 -5 -4 -5 12 0 17 2 24 5 18 2 -7 2
-21 0 -30z m10 -80 c-3 -10 -5 -2 -5 17 0 19 2 27 5 18 2 -10 2 -26 0 -35z
m1860 -15 c-3 -7 -5 -2 -5 12 0 14 2 19 5 13 2 -7 2 -19 0 -25z m-10 -70 c-3
-8 -6 -5 -6 6 -1 11 2 17 5 13 3 -3 4 -12 1 -19z m-10 -60 c-3 -8 -6 -5 -6 6
-1 11 2 17 5 13 3 -3 4 -12 1 -19z m-20 -110 c-3 -8 -6 -5 -6 6 -1 11 2 17 5
13 3 -3 4 -12 1 -19z m-10 -80 c-3 -7 -5 -2 -5 12 0 14 2 19 5 13 2 -7 2 -19
0 -25z m-10 -75 c-3 -10 -5 -4 -5 12 0 17 2 24 5 18 2 -7 2 -21 0 -30z m770
-75 c-2 -13 -4 -5 -4 17 -1 22 1 32 4 23 2 -10 2 -28 0 -40z m-780 -25 c-3
-10 -5 -2 -5 17 0 19 2 27 5 18 2 -10 2 -26 0 -35z m790 -65 c-3 -7 -5 -2 -5
12 0 14 2 19 5 13 2 -7 2 -19 0 -25z m-790 -85 c-2 -16 -4 -5 -4 22 0 28 2 40
4 28 2 -13 2 -35 0 -50z m800 25 c-3 -8 -6 -5 -6 6 -1 11 2 17 5 13 3 -3 4
-12 1 -19z m-790 -120 c-3 -7 -5 -2 -5 12 0 14 2 19 5 13 2 -7 2 -19 0 -25z
m10 -60 c-3 -8 -6 -5 -6 6 -1 11 2 17 5 13 3 -3 4 -12 1 -19z m20 -100 c-3 -8
-6 -5 -6 6 -1 11 2 17 5 13 3 -3 4 -12 1 -19z m63 -183 c0 -5 -5 -3 -10 5 -5
8 -10 20 -10 25 0 6 5 3 10 -5 5 -8 10 -19 10 -25z m20 -50 c0 -5 -5 -3 -10 5
-5 8 -10 20 -10 25 0 6 5 3 10 -5 5 -8 10 -19 10 -25z m39 -85 c11 -24 11 -24
-3 -6 -9 11 -16 24 -16 30 0 12 5 7 19 -24z m51 -90 c6 -11 8 -20 6 -20 -3 0
-10 9 -16 20 -6 11 -8 20 -6 20 3 0 10 -9 16 -20z m67 -42 c-3 -7 -5 -2 -5 12
0 14 2 19 5 13 2 -7 2 -19 0 -25z m9 -65 c-4 -4 -12 -1 -19 7 -9 10 -9 11 1 6
7 -4 12 -2 13 6 0 11 2 11 6 0 3 -7 2 -16 -1 -19z m-1498 -10 c-16 -2 -40 -2
-55 0 -16 2 -3 4 27 4 30 0 43 -2 28 -4z m160 0 c-15 -2 -42 -2 -60 0 -18 2
-6 4 27 4 33 0 48 -2 33 -4z m2119 -15 c-3 -8 -6 -5 -6 6 -1 11 2 17 5 13 3
-3 4 -12 1 -19z m-2414 5 c-7 -2 -19 -2 -25 0 -7 3 -2 5 12 5 14 0 19 -2 13
-5z m400 0 c-7 -2 -21 -2 -30 0 -10 3 -4 5 12 5 17 0 24 -2 18 -5z m-466 -9
c-3 -3 -12 -4 -19 -1 -8 3 -5 6 6 6 11 1 17 -2 13 -5z m526 -1 c-7 -2 -19 -2
-25 0 -7 3 -2 5 12 5 14 0 19 -2 13 -5z m54 -9 c-3 -3 -12 -4 -19 -1 -8 3 -5
6 6 6 11 1 17 -2 13 -5z m40 -10 c-3 -3 -12 -4 -19 -1 -8 3 -5 6 6 6 11 1 17
-2 13 -5z m40 -10 c-3 -3 -12 -4 -19 -1 -8 3 -5 6 6 6 11 1 17 -2 13 -5z
m1830 -16 c-3 -8 -6 -5 -6 6 -1 11 2 17 5 13 3 -3 4 -12 1 -19z m-1819 -37
c51 -11 123 -30 160 -42 37 -13 72 -22 78 -21 15 3 114 -106 166 -182 60 -87
125 -230 150 -332 31 -126 31 -332 0 -457 -45 -180 -140 -348 -266 -473 -185
-182 -415 -281 -676 -291 -240 -10 -468 61 -649 202 -88 67 -250 245 -225 245
4 0 -1 7 -12 16 -10 8 -14 13 -8 10 7 -3 1 25 -13 65 -54 156 -69 371 -37 527
56 271 230 527 429 629 118 61 274 105 445 127 84 10 367 -3 458 -23z m122 9
c8 -5 11 -10 5 -10 -5 0 -17 5 -25 10 -8 5 -10 10 -5 10 6 0 17 -5 25 -10z
m1707 -22 c-3 -8 -6 -5 -6 6 -1 11 2 17 5 13 3 -3 4 -12 1 -19z m-1651 -4 c18
-14 18 -14 -6 -3 -31 14 -36 19 -24 19 6 0 19 -7 30 -16z m45 -31 c13 -16 12
-17 -3 -4 -17 13 -22 21 -14 21 2 0 10 -8 17 -17z m1616 -25 c-3 -7 -5 -2 -5
12 0 14 2 19 5 13 2 -7 2 -19 0 -25z m10 -70 c-3 -7 -5 -2 -5 12 0 14 2 19 5
13 2 -7 2 -19 0 -25z m-3037 -22 c0 -2 -8 -10 -17 -17 -16 -13 -17 -12 -4 4
13 16 21 21 21 13z m3047 -103 c-2 -16 -4 -5 -4 22 0 28 2 40 4 28 2 -13 2
-35 0 -50z m0 -255 c-2 -18 -4 -6 -4 27 0 33 2 48 4 33 2 -15 2 -42 0 -60z
m-10 -145 c-3 -10 -5 -2 -5 17 0 19 2 27 5 18 2 -10 2 -26 0 -35z m-3270 -25
c-3 -7 -5 -2 -5 12 0 14 2 19 5 13 2 -7 2 -19 0 -25z m3260 -70 c-3 -7 -5 -2
-5 12 0 14 2 19 5 13 2 -7 2 -19 0 -25z m-3270 -55 c-3 -10 -5 -4 -5 12 0 17
2 24 5 18 2 -7 2 -21 0 -30z m3260 -25 c-3 -8 -6 -5 -6 6 -1 11 2 17 5 13 3
-3 4 -12 1 -19z m-10 -80 c-3 -7 -5 -2 -5 12 0 14 2 19 5 13 2 -7 2 -19 0 -25z
m-3240 -20 c-3 -7 -5 -2 -5 12 0 14 2 19 5 13 2 -7 2 -19 0 -25z m3230 -40
c-3 -8 -6 -5 -6 6 -1 11 2 17 5 13 3 -3 4 -12 1 -19z m-3220 -20 c-3 -8 -6 -5
-6 6 -1 11 2 17 5 13 3 -3 4 -12 1 -19z m53 -163 c0 -5 -5 -3 -10 5 -5 8 -10
20 -10 25 0 6 5 3 10 -5 5 -8 10 -19 10 -25z m39 -82 c17 -35 29 -63 26 -63
-5 0 -65 116 -65 126 0 12 6 2 39 -63z m2371 -1077 c0 -2 -8 -10 -17 -17 -16
-13 -17 -12 -4 4 13 16 21 21 21 13z m-2180 -453 c30 -11 31 -12 6 -8 -16 4
-43 13 -60 20 -23 11 -25 13 -6 8 14 -3 41 -12 60 -20z m97 -29 c-3 -3 -12 -4
-19 -1 -8 3 -5 6 6 6 11 1 17 -2 13 -5z m40 -10 c-3 -3 -12 -4 -19 -1 -8 3 -5
6 6 6 11 1 17 -2 13 -5z m40 -10 c-3 -3 -12 -4 -19 -1 -8 3 -5 6 6 6 11 1 17
-2 13 -5z m40 -10 c-3 -3 -12 -4 -19 -1 -8 3 -5 6 6 6 11 1 17 -2 13 -5z m56
-11 c-7 -2 -19 -2 -25 0 -7 3 -2 5 12 5 14 0 19 -2 13 -5z m880 0 c-7 -2 -19
-2 -25 0 -7 3 -2 5 12 5 14 0 19 -2 13 -5z m-830 -10 c-7 -2 -19 -2 -25 0 -7
3 -2 5 12 5 14 0 19 -2 13 -5z m780 0 c-7 -2 -21 -2 -30 0 -10 3 -4 5 12 5 17
0 24 -2 18 -5z m-710 -10 c-7 -2 -21 -2 -30 0 -10 3 -4 5 12 5 17 0 24 -2 18
-5z m640 0 c-7 -2 -21 -2 -30 0 -10 3 -4 5 12 5 17 0 24 -2 18 -5z m-555 -10
c-10 -2 -26 -2 -35 0 -10 3 -2 5 17 5 19 0 27 -2 18 -5z m475 0 c-13 -2 -33
-2 -45 0 -13 2 -3 4 22 4 25 0 35 -2 23 -4z m-175 -10 c-43 -2 -113 -2 -155 0
-43 1 -8 3 77 3 85 0 120 -2 78 -3z"/>
<path d="M8570 14338 c0 -1290 -4 -2021 -10 -2093 -48 -508 -309 -829 -745
-916 -104 -21 -368 -18 -475 4 -108 23 -216 66 -305 122 -72 45 -197 165 -230
223 -11 18 -25 30 -31 28 -13 -5 -611 -432 -633 -452 -12 -11 -10 -19 14 -51
157 -210 403 -400 657 -508 37 -16 65 -32 63 -35 -5 -8 170 -82 260 -109 171
-53 301 -72 515 -78 225 -6 339 3 536 42 629 126 1051 551 1198 1207 62 274
59 183 63 2266 3 1187 0 1929 -6 1972 -5 42 -19 85 -33 107 l-23 38 -5 -1880
-5 -1880 -3 1988 -2 1987 -400 0 -400 0 0 -1982z m797 -2170 c-2 -13 -4 -5 -4
17 -1 22 1 32 4 23 2 -10 2 -28 0 -40z m-10 -100 c-3 -7 -5 -2 -5 12 0 14 2
19 5 13 2 -7 2 -19 0 -25z m-10 -80 c-3 -7 -5 -2 -5 12 0 14 2 19 5 13 2 -7 2
-19 0 -25z m-10 -60 c-3 -8 -6 -5 -6 6 -1 11 2 17 5 13 3 -3 4 -12 1 -19z
m-10 -50 c-3 -8 -6 -5 -6 6 -1 11 2 17 5 13 3 -3 4 -12 1 -19z m-407 -841 c0
-2 -17 -19 -37 -38 l-38 -34 34 38 c33 34 41 42 41 34z m-130 -121 c0 -2 -8
-10 -17 -17 -16 -13 -17 -12 -4 4 13 16 21 21 21 13z m-1723 -312 c-3 -3 -12
-4 -19 -1 -8 3 -5 6 6 6 11 1 17 -2 13 -5z m80 -20 c-3 -3 -12 -4 -19 -1 -8 3
-5 6 6 6 11 1 17 -2 13 -5z m50 -10 c-3 -3 -12 -4 -19 -1 -8 3 -5 6 6 6 11 1
17 -2 13 -5z m50 -10 c-3 -3 -12 -4 -19 -1 -8 3 -5 6 6 6 11 1 17 -2 13 -5z
m736 -1 c-7 -2 -19 -2 -25 0 -7 3 -2 5 12 5 14 0 19 -2 13 -5z m-670 -10 c-7
-2 -19 -2 -25 0 -7 3 -2 5 12 5 14 0 19 -2 13 -5z m600 0 c-7 -2 -19 -2 -25 0
-7 3 -2 5 12 5 14 0 19 -2 13 -5z m-505 -10 c-10 -2 -26 -2 -35 0 -10 3 -2 5
17 5 19 0 27 -2 18 -5z m410 0 c-10 -2 -26 -2 -35 0 -10 3 -2 5 17 5 19 0 27
-2 18 -5z m-190 -10 c-21 -2 -55 -2 -75 0 -21 2 -4 4 37 4 41 0 58 -2 38 -4z"/>
<path d="M25280 13911 c0 -1669 3 -2433 11 -2487 16 -113 53 -251 92 -341 l34
-79 -206 -18 c-113 -9 -226 -19 -251 -21 -33 -3 -37 -2 -15 3 23 5 31 14 33
34 3 22 -8 36 -69 86 l-72 60 -25 -27 c-14 -15 -10 -8 8 16 l31 43 -178 172
c-98 95 -228 221 -288 280 l-110 107 -63 -69 c-127 -140 -338 -271 -522 -324
-120 -34 -265 -50 -385 -42 -252 17 -428 81 -588 211 -52 42 -128 132 -126
148 0 5 -8 15 -18 24 -10 8 -13 12 -7 9 7 -4 2 24 -11 63 -56 166 -58 181 -62
701 -5 509 0 601 38 745 23 90 81 219 129 292 46 68 155 178 224 225 179 123
432 189 673 174 139 -8 249 -33 408 -91 l20 -8 -20 17 c-20 17 -20 17 3 6 12
-6 22 -15 22 -21 0 -6 4 -8 9 -5 12 8 134 -85 212 -160 63 -63 66 -64 82 -46
16 18 21 18 61 5 81 -27 135 0 310 156 144 127 173 174 166 261 -3 42 -11 43
-49 8 -21 -18 -13 -10 17 19 l54 52 -52 65 c-222 280 -591 476 -1045 557 -113
20 -163 23 -385 24 -272 0 -373 -11 -570 -60 -542 -135 -906 -462 -1084 -972
-41 -119 -80 -297 -95 -435 -14 -124 -14 -1111 -1 -1233 36 -322 130 -598 282
-826 74 -113 250 -292 359 -366 41 -29 182 -108 313 -177 l237 -126 317 -2
317 -3 -305 -5 -305 -5 65 -23 c102 -35 235 -45 515 -39 254 6 419 23 580 57
139 30 405 112 398 123 -3 5 4 6 17 2 16 -5 20 -4 15 5 -5 9 -1 10 15 5 17 -5
21 -4 15 5 -5 9 -4 11 3 6 15 -9 163 67 202 104 29 27 40 29 248 54 119 14
301 33 405 42 l187 17 63 -60 c94 -90 198 -155 294 -183 23 -7 40 -16 38 -20
-2 -4 24 -19 58 -35 34 -15 90 -40 124 -55 34 -16 64 -26 67 -22 11 11 5 -7
-58 -174 -272 -722 -569 -1341 -831 -1734 -126 -189 -208 -291 -313 -392 -135
-129 -226 -178 -332 -178 -118 0 -191 115 -204 322 -3 46 -3 74 0 63 11 -40
54 -156 68 -183 18 -34 64 -78 73 -68 4 3 -4 30 -16 59 -59 134 -62 188 -25
488 15 123 16 151 5 178 -15 34 -49 49 -77 33 -11 -6 -27 -6 -46 0 -36 13 -91
5 -125 -17 -38 -25 -77 -118 -68 -163 3 -20 9 -66 11 -102 l5 -65 -85 -101
c-182 -217 -382 -380 -586 -478 -141 -68 -223 -77 -307 -33 -93 49 -154 209
-198 519 -14 98 -30 199 -35 224 -6 26 -9 49 -6 51 8 9 34 -96 60 -242 29
-158 49 -232 79 -290 27 -51 35 -25 13 43 -27 82 -46 180 -72 360 -13 96 -29
192 -36 214 -22 74 -87 121 -117 84 -9 -10 -8 -16 4 -26 9 -8 21 -22 27 -33 5
-11 -10 1 -34 27 -37 38 -51 46 -82 46 -45 0 -91 -19 -134 -54 -77 -66 -265
-397 -361 -639 -24 -59 -46 -106 -48 -103 -3 2 0 12 5 22 8 14 2 29 -24 66
-43 64 -50 113 -30 245 8 59 18 164 22 233 3 69 14 164 24 211 10 48 16 98 13
110 -4 19 -3 21 6 9 10 -13 11 -13 11 0 0 8 17 53 36 100 113 267 152 378 148
427 -3 43 -2 44 5 13 l8 -35 2 42 c1 26 -5 47 -15 57 -17 18 -28 21 -19 6 3
-5 -6 -3 -21 5 -22 11 -33 11 -71 0 -55 -17 -99 -49 -190 -142 -126 -128 -156
-231 -101 -343 l26 -53 -32 -126 c-19 -70 -44 -183 -56 -252 -26 -140 -30
-147 -170 -293 -140 -145 -288 -257 -433 -327 -247 -118 -451 -12 -492 256
l-6 40 31 -55 c17 -30 40 -65 52 -77 26 -28 53 -31 43 -5 -69 178 -79 343 -41
632 33 250 33 283 1 315 -22 22 -63 36 -52 18 3 -5 -19 -6 -49 -5 -107 7 -173
-59 -230 -233 -84 -251 -345 -759 -511 -992 -81 -114 -206 -213 -268 -213 -35
0 -80 46 -94 96 -17 63 -13 84 8 38 10 -22 31 -50 46 -62 32 -26 93 -30 101
-7 3 8 -16 47 -44 89 -27 41 -56 98 -63 127 -21 81 -16 263 11 384 12 55 32
161 46 235 13 74 31 165 39 202 25 111 16 185 -21 177 -5 -1 -26 6 -48 15 -43
19 -74 13 -127 -24 -46 -33 -60 -72 -65 -174 -2 -50 -12 -136 -22 -190 l-17
-100 -42 -25 c-23 -14 -91 -57 -150 -94 -230 -146 -437 -227 -577 -227 -68 0
-75 2 -110 33 -46 40 -94 152 -142 331 -53 200 -112 291 -203 316 -86 23 -158
-38 -315 -265 -221 -319 -263 -307 -351 100 -16 77 -39 148 -63 197 -21 43
-37 78 -35 78 13 0 88 -139 102 -190 11 -36 29 -101 42 -144 21 -73 58 -136
80 -136 15 0 10 25 -17 86 -14 32 -38 112 -54 178 -16 67 -36 141 -45 165 -38
107 -121 165 -188 130 -12 -7 -51 -12 -88 -13 -60 -1 -72 -5 -124 -41 -102
-70 -211 -228 -385 -556 -96 -180 -188 -337 -204 -346 -6 -4 -5 1 3 10 12 15
9 21 -26 55 -50 48 -66 103 -65 217 1 111 21 209 78 388 59 183 60 267 3 297
-11 6 -29 8 -40 5 -17 -6 -18 -9 -7 -23 7 -9 0 -6 -16 6 -59 46 -73 38 -251
-146 -368 -379 -734 -637 -974 -688 -141 -29 -193 15 -329 282 -109 213 -148
269 -205 295 -51 23 -146 25 -186 4 -48 -24 -97 -92 -140 -189 -59 -137 -71
-162 -68 -146 2 8 -6 23 -19 32 -29 24 -61 91 -74 157 -5 29 -17 141 -25 249
-25 314 -52 446 -102 497 -31 30 -58 29 -57 -3 l1 -22 -32 24 c-41 32 -98 47
-136 36 -156 -45 -328 -312 -523 -810 -109 -277 -189 -470 -244 -584 l-48
-100 -37 39 c-45 46 -61 100 -53 178 7 70 117 514 180 728 89 303 103 395 68
440 -13 15 -25 20 -37 16 -15 -6 -15 -10 -4 -25 7 -9 0 -5 -16 9 -38 33 -67
43 -111 34 -26 -4 -38 -14 -53 -43 -46 -92 -140 -429 -190 -687 l-28 -140 -71
-41 c-171 -98 -455 -154 -786 -154 l-119 0 6 124 c8 166 -7 363 -33 441 -42
126 -163 281 -238 306 -52 17 -196 6 -265 -21 -69 -26 -151 -90 -188 -146 -75
-114 -79 -276 -10 -415 18 -37 25 -62 20 -75 -6 -17 -667 -663 -897 -877 -216
-201 -550 -417 -745 -481 -62 -21 -180 -21 -242 1 -29 9 -66 33 -90 57 -78 79
-104 168 -110 376 -3 133 -3 137 4 40 9 -115 38 -206 92 -280 45 -62 64 -53
33 16 -48 108 -57 172 -51 369 6 204 24 303 89 505 43 134 111 308 153 391 15
28 21 48 15 44 -9 -6 -9 -2 -1 14 7 11 16 21 22 21 6 0 8 4 5 8 -8 13 97 148
182 235 130 133 298 257 333 245 6 -2 -3 -22 -20 -45 -60 -84 -94 -154 -94
-197 0 -77 51 -137 130 -152 67 -13 109 33 158 173 13 37 27 66 31 63 13 -8
53 59 71 119 35 118 16 210 -52 247 -42 22 -144 16 -205 -13 -25 -11 -67 -26
-95 -33 -125 -29 -285 -139 -466 -319 -242 -242 -441 -621 -520 -991 -31 -144
-34 -479 -5 -610 53 -242 143 -374 284 -416 72 -22 232 -19 322 6 162 46 364
164 580 341 63 51 295 269 515 484 501 489 535 521 535 504 0 -8 -7 -50 -16
-94 -24 -115 -25 -386 -1 -480 37 -147 124 -282 211 -327 60 -32 146 -30 211
4 57 30 129 101 170 168 64 103 131 315 156 493 l12 87 82 0 c250 0 560 60
784 151 52 21 96 37 98 36 1 -2 -4 -55 -12 -118 -9 -63 -18 -195 -22 -295 -5
-166 -4 -187 15 -251 15 -48 34 -84 60 -113 34 -38 43 -43 83 -44 88 -2 168
77 229 228 66 162 380 904 430 1016 133 298 253 477 313 468 58 -8 93 -182
117 -593 28 -452 71 -602 184 -633 89 -25 146 30 201 191 16 48 33 87 38 87 4
0 6 4 3 9 -16 26 111 312 150 337 47 32 65 11 158 -180 128 -266 188 -344 305
-399 115 -54 231 -36 400 62 92 54 269 182 399 288 297 242 446 353 476 353
23 0 21 -30 -18 -208 -97 -443 -96 -611 6 -742 62 -79 166 -81 256 -5 43 36
118 147 172 255 100 199 276 520 322 587 82 119 173 186 224 166 29 -11 68
-114 94 -248 19 -103 68 -248 98 -296 59 -91 172 -115 250 -52 20 16 70 72
110 124 41 52 108 138 150 192 43 54 92 108 110 119 l33 20 24 -22 c31 -29 57
-93 89 -215 72 -273 161 -386 326 -410 141 -21 476 118 789 328 l74 50 -6 -54
c-3 -30 -13 -117 -22 -194 -22 -185 -17 -383 13 -475 83 -255 334 -219 562 80
61 81 165 243 277 435 106 181 147 261 188 365 21 52 41 99 45 103 4 4 10 -79
13 -185 9 -267 37 -381 122 -498 87 -117 213 -178 344 -167 93 8 212 48 308
104 103 60 292 206 409 317 l89 84 -8 -97 c-10 -115 -3 -335 13 -411 23 -104
71 -160 140 -160 80 0 124 55 204 254 116 285 258 567 344 682 40 53 78 68
102 39 7 -8 25 -95 41 -193 64 -397 91 -500 159 -594 65 -92 172 -148 280
-148 62 0 181 31 265 69 152 69 378 245 574 445 52 53 95 95 96 94 1 -2 7 -51
13 -109 13 -126 51 -250 92 -308 97 -134 272 -157 465 -62 361 179 838 952
1291 2093 54 136 99 246 100 245 1 -1 -6 -108 -16 -237 -36 -452 -42 -599 -47
-1120 -7 -686 10 -1037 78 -1570 67 -533 165 -999 290 -1387 60 -185 96 -268
138 -316 l32 -36 -20 -39 c-73 -143 -158 -404 -201 -622 -79 -394 -50 -679 88
-867 97 -131 272 -197 455 -173 276 38 588 225 880 529 280 293 582 783 713
1156 15 44 31 81 35 83 5 2 5 10 2 18 -3 8 0 14 6 14 6 0 8 7 4 17 -5 11 -3
14 6 8 10 -6 11 -2 6 15 -5 16 -4 20 4 15 8 -5 10 2 6 22 -4 18 -3 23 2 15 14
-18 69 168 110 368 65 323 83 478 93 809 4 167 7 309 5 315 -11 32 -24 579
-17 695 9 156 -8 132 170 244 125 79 357 198 492 252 115 47 120 50 120 86 0
45 -32 46 -146 4 -171 -64 -374 -171 -564 -298 -41 -27 -69 -44 -62 -36 6 7
12 20 12 27 0 17 -101 181 -112 182 -5 0 -8 -24 -9 -52 -1 -29 -4 -64 -8 -78
-6 -19 -9 -10 -15 40 -11 105 -44 289 -65 370 -11 41 -18 76 -16 78 7 7 33
-54 61 -143 35 -111 42 -87 19 68 -37 253 -88 348 -165 307 -21 -11 -21 -12
-4 -33 10 -12 2 -6 -19 13 -46 43 -90 45 -138 8 -35 -26 -55 -64 -128 -238
-57 -138 -273 -551 -327 -626 -52 -74 -108 -119 -159 -128 -68 -13 -157 48
-192 132 -7 18 -16 70 -19 115 l-4 82 15 -55 c22 -76 66 -151 105 -177 61 -42
67 -22 15 52 -57 79 -76 158 -74 302 1 67 5 120 9 118 13 -8 60 149 60 203 0
72 -14 96 -50 89 -22 -5 -29 -1 -39 19 -12 28 -64 54 -92 47 -31 -8 -45 -35
-72 -133 -44 -158 -69 -322 -69 -460 -1 -196 40 -319 136 -415 108 -107 236
-101 363 18 90 84 176 219 328 516 125 243 181 331 211 331 40 0 97 -236 144
-600 11 -85 20 -168 19 -185 -1 -25 -22 -50 -136 -155 -151 -140 -459 -458
-634 -655 -320 -360 -618 -747 -846 -1097 -112 -173 -117 -181 -102 -149 11
23 7 30 -65 99 -42 40 -82 71 -89 69 -16 -6 -12 -92 6 -146 8 -22 13 -41 12
-41 -5 0 -110 189 -148 265 -70 141 -126 336 -192 670 -65 328 -87 547 -107
1078 -18 500 11 1400 64 1991 10 112 14 131 34 150 12 11 36 58 54 102 59 157
114 219 243 280 59 27 101 68 119 113 5 14 14 89 18 166 11 164 15 184 44 190
11 2 175 12 363 21 l341 17 79 -67 c112 -97 184 -142 446 -282 l232 -124 320
-2 320 -3 -310 -5 -310 -5 67 -22 c127 -43 375 -54 693 -33 373 26 710 142
1024 353 139 94 191 165 176 244 -6 35 -6 35 -28 17 -12 -10 -4 1 18 24 l40
42 -262 262 -262 261 -36 -29 c-228 -181 -418 -274 -653 -321 -118 -23 -363
-23 -486 1 -194 38 -347 111 -467 224 -68 63 -163 178 -133 159 5 -3 -6 40
-25 96 -29 85 -35 117 -35 192 -1 98 10 129 61 177 15 15 46 35 68 45 38 17
108 18 1150 23 l1110 5 47 23 c95 47 113 123 97 405 -22 402 -84 702 -206 989
-27 63 -50 105 -56 101 -6 -4 -8 0 -4 10 3 10 2 17 -4 17 -6 0 -7 5 -4 10 3 6
2 10 -3 10 -6 0 -17 19 -27 43 -9 23 -41 86 -71 139 -237 421 -602 671 -1071
733 -269 36 -613 6 -868 -76 -128 -42 -336 -148 -436 -223 -352 -266 -570
-694 -633 -1246 -22 -188 -23 -949 -1 -1132 36 -311 130 -593 269 -808 26 -39
41 -68 34 -65 -7 4 1 -4 17 -18 17 -14 27 -28 23 -32 -8 -8 -649 -37 -656 -30
-3 3 15 5 40 5 30 0 48 5 51 14 8 21 -19 66 -64 104 -55 47 -82 104 -82 172 0
30 10 127 23 215 28 192 34 490 11 567 -18 63 -44 90 -84 86 -33 -3 -37 -12
-22 -53 4 -11 -4 -2 -17 20 -62 104 -146 64 -207 -100 -21 -56 -79 -371 -113
-616 l-22 -161 -36 6 c-19 3 -41 13 -47 23 -7 9 -13 13 -13 8 0 -12 -50 36
-62 60 -6 11 6 2 25 -20 39 -43 44 -40 25 15 -10 27 -14 532 -18 2295 l-5
2260 -24 48 c-13 27 -30 51 -37 54 -11 4 -14 31 -14 114 l0 109 -400 0 -400 0
0 -2409z m3538 102 c-21 -2 -55 -2 -75 0 -21 2 -4 4 37 4 41 0 58 -2 38 -4z
m-175 -10 c-7 -2 -19 -2 -25 0 -7 3 -2 5 12 5 14 0 19 -2 13 -5z m290 0 c-7
-2 -19 -2 -25 0 -7 3 -2 5 12 5 14 0 19 -2 13 -5z m-356 -9 c-3 -3 -12 -4 -19
-1 -8 3 -5 6 6 6 11 1 17 -2 13 -5z m-5149 -21 c-27 -2 -69 -2 -95 0 -27 2 -5
3 47 3 52 0 74 -1 48 -3z m-205 -10 c-7 -2 -19 -2 -25 0 -7 3 -2 5 12 5 14 0
19 -2 13 -5z m330 0 c-7 -2 -19 -2 -25 0 -7 3 -2 5 12 5 14 0 19 -2 13 -5z
m1167 4 c0 -2 -15 -16 -32 -33 l-33 -29 29 33 c28 30 36 37 36 29z m4420 -27
c22 -11 40 -23 40 -25 0 -5 -79 32 -89 41 -11 10 14 2 49 -16z m-5483 4 c-3
-3 -12 -4 -19 -1 -8 3 -5 6 6 6 11 1 17 -2 13 -5z m40 -10 c-3 -3 -12 -4 -19
-1 -8 3 -5 6 6 6 11 1 17 -2 13 -5z m5412 -24 c97 -23 94 -23 85 -8 -4 7 -3 8
5 4 6 -4 9 -11 6 -16 -3 -4 2 -11 11 -14 10 -4 13 -2 8 6 -17 27 57 -36 118
-101 147 -155 242 -383 283 -679 8 -62 15 -119 15 -127 0 -13 -117 -15 -905
-15 l-905 0 2 38 c1 36 1 36 5 5 4 -32 6 -33 52 -33 l48 0 6 98 c7 143 76 333
170 472 45 66 164 187 227 230 121 82 271 139 425 159 95 13 244 4 344 -19z
m-5259 -30 c8 -5 11 -10 5 -10 -5 0 -17 5 -25 10 -8 5 -10 10 -5 10 6 0 17 -5
25 -10z m750 -24 c0 -2 -8 -10 -17 -17 -16 -13 -17 -12 -4 4 13 16 21 21 21
13z m3570 -49 c0 -2 -17 -19 -37 -38 l-38 -34 34 38 c33 34 41 42 41 34z
m-3670 -40 c0 -2 -12 -14 -27 -28 l-28 -24 24 28 c23 25 31 32 31 24z m-1800
-20 c0 -2 -15 -16 -32 -33 l-33 -29 29 33 c28 30 36 37 36 29z m1680 -92 c-24
-25 -46 -45 -49 -45 -3 0 15 20 39 45 24 25 46 45 49 45 3 0 -15 -20 -39 -45z
m5887 -57 c-3 -8 -6 -5 -6 6 -1 11 2 17 5 13 3 -3 4 -12 1 -19z m30 -100 c-3
-8 -6 -5 -6 6 -1 11 2 17 5 13 3 -3 4 -12 1 -19z m10 -40 c-3 -8 -6 -5 -6 6
-1 11 2 17 5 13 3 -3 4 -12 1 -19z m10 -40 c-3 -8 -6 -5 -6 6 -1 11 2 17 5 13
3 -3 4 -12 1 -19z m10 -40 c-3 -8 -6 -5 -6 6 -1 11 2 17 5 13 3 -3 4 -12 1
-19z m10 -50 c-3 -8 -6 -5 -6 6 -1 11 2 17 5 13 3 -3 4 -12 1 -19z m-2460 -50
c-3 -8 -6 -5 -6 6 -1 11 2 17 5 13 3 -3 4 -12 1 -19z m2470 0 c-3 -8 -6 -5 -6
6 -1 11 2 17 5 13 3 -3 4 -12 1 -19z m-7910 -30 c-3 -8 -6 -5 -6 6 -1 11 2 17
5 13 3 -3 4 -12 1 -19z m7920 -30 c-3 -7 -5 -2 -5 12 0 14 2 19 5 13 2 -7 2
-19 0 -25z m-7930 -30 c-3 -8 -6 -5 -6 6 -1 11 2 17 5 13 3 -3 4 -12 1 -19z
m5430 -10 c-3 -8 -6 -5 -6 6 -1 11 2 17 5 13 3 -3 4 -12 1 -19z m2510 -20 c-3
-7 -5 -2 -5 12 0 14 2 19 5 13 2 -7 2 -19 0 -25z m-7950 -80 c-2 -13 -4 -5 -4
17 -1 22 1 32 4 23 2 -10 2 -28 0 -40z m5430 20 c-3 -7 -5 -2 -5 12 0 14 2 19
5 13 2 -7 2 -19 0 -25z m2530 -15 c-3 -10 -5 -4 -5 12 0 17 2 24 5 18 2 -7 2
-21 0 -30z m10 -90 c-3 -10 -5 -4 -5 12 0 17 2 24 5 18 2 -7 2 -21 0 -30z m10
-135 c-2 -13 -4 -3 -4 22 0 25 2 35 4 23 2 -13 2 -33 0 -45z m13 -333 l0 -215
-1272 2 -1273 3 1268 2 1267 3 0 210 c0 116 2 210 5 210 3 0 5 -97 5 -215z
m-2573 -297 c-2 -13 -4 -5 -4 17 -1 22 1 32 4 23 2 -10 2 -28 0 -40z m-5420
-50 c-2 -13 -4 -3 -4 22 0 25 2 35 4 23 2 -13 2 -33 0 -45z m5430 -50 c-3 -7
-5 -2 -5 12 0 14 2 19 5 13 2 -7 2 -19 0 -25z m-5420 -40 c-3 -7 -5 -2 -5 12
0 14 2 19 5 13 2 -7 2 -19 0 -25z m4250 -10 c-3 -8 -6 -5 -6 6 -1 11 2 17 5
13 3 -3 4 -12 1 -19z m1180 -10 c-3 -8 -6 -5 -6 6 -1 11 2 17 5 13 3 -3 4 -12
1 -19z m-5420 -40 c-3 -8 -6 -5 -6 6 -1 11 2 17 5 13 3 -3 4 -12 1 -19z m5430
-10 c-3 -8 -6 -5 -6 6 -1 11 2 17 5 13 3 -3 4 -12 1 -19z m-1180 -200 c-2 -35
-3 -7 -3 62 0 69 1 97 3 63 2 -35 2 -91 0 -125z m1243 17 c0 -5 -5 -3 -10 5
-5 8 -10 20 -10 25 0 6 5 3 10 -5 5 -8 10 -19 10 -25z m-5420 -30 c0 -5 -5 -3
-10 5 -5 8 -10 20 -10 25 0 6 5 3 10 -5 5 -8 10 -19 10 -25z m5470 -65 c6 -11
8 -20 6 -20 -3 0 -10 9 -16 20 -6 11 -8 20 -6 20 3 0 10 -9 16 -20z m-5430
-10 c6 -11 8 -20 6 -20 -3 0 -10 9 -16 20 -6 11 -8 20 -6 20 3 0 10 -9 16 -20z
m4127 -97 c-3 -10 -5 -2 -5 17 0 19 2 27 5 18 2 -10 2 -26 0 -35z m-590 -65
c-3 -7 -5 -2 -5 12 0 14 2 19 5 13 2 -7 2 -19 0 -25z m580 -30 c-3 -7 -5 -2
-5 12 0 14 2 19 5 13 2 -7 2 -19 0 -25z m-10 -70 c-3 -8 -6 -5 -6 6 -1 11 2
17 5 13 3 -3 4 -12 1 -19z m-10 -60 c-3 -8 -6 -5 -6 6 -1 11 2 17 5 13 3 -3 4
-12 1 -19z m3563 -341 c0 -2 -12 -14 -27 -28 l-28 -24 24 28 c23 25 31 32 31
24z m-60 -51 c0 -2 -8 -10 -17 -17 -16 -13 -17 -12 -4 4 13 16 21 21 21 13z
m-3413 -52 c-3 -3 -12 -4 -19 -1 -8 3 -5 6 6 6 11 1 17 -2 13 -5z m-1864 -11
c-7 -2 -21 -2 -30 0 -10 3 -4 5 12 5 17 0 24 -2 18 -5z m-96 -9 c-3 -3 -12 -4
-19 -1 -8 3 -5 6 6 6 11 1 17 -2 13 -5z m1933 -219 l0 -155 -62 2 -63 2 58 3
57 4 0 149 c0 83 2 150 5 150 3 0 5 -70 5 -155z m-2057 58 c-7 -2 -19 -2 -25
0 -7 3 -2 5 12 5 14 0 19 -2 13 -5z m-66 -9 c-3 -3 -12 -4 -19 -1 -8 3 -5 6 6
6 11 1 17 -2 13 -5z m-119 -80 c-3 -14 -5 -12 -10 9 -3 19 -2 25 4 19 6 -6 8
-18 6 -28z m-235 -61 c-13 -2 -33 -2 -45 0 -13 2 -3 4 22 4 25 0 35 -2 23 -4z
m125 0 c-10 -2 -26 -2 -35 0 -10 3 -2 5 17 5 19 0 27 -2 18 -5z m1609 -29 c-3
-3 -12 -4 -19 -1 -8 3 -5 6 6 6 11 1 17 -2 13 -5z m50 -10 c-3 -3 -12 -4 -19
-1 -8 3 -5 6 6 6 11 1 17 -2 13 -5z m76 -11 c-7 -2 -21 -2 -30 0 -10 3 -4 5
12 5 17 0 24 -2 18 -5z m3194 1 c-3 -3 -12 -4 -19 -1 -8 3 -5 6 6 6 11 1 17
-2 13 -5z m-5470 -10 c-3 -3 -12 -4 -19 -1 -8 3 -5 6 6 6 11 1 17 -2 13 -5z
m2350 -16 c-3 -8 -6 -5 -6 6 -1 11 2 17 5 13 3 -3 4 -12 1 -19z m-2404 5 c-7
-2 -19 -2 -25 0 -7 3 -2 5 12 5 14 0 19 -2 13 -5z m5424 1 c-3 -3 -12 -4 -19
-1 -8 3 -5 6 6 6 11 1 17 -2 13 -5z m-5494 -11 c-7 -2 -19 -2 -25 0 -7 3 -2 5
12 5 14 0 19 -2 13 -5z m5434 1 c-3 -3 -12 -4 -19 -1 -8 3 -5 6 6 6 11 1 17
-2 13 -5z m-5529 -11 c-10 -2 -26 -2 -35 0 -10 3 -2 5 17 5 19 0 27 -2 18 -5z
m5450 0 c-10 -2 -26 -2 -35 0 -10 3 -2 5 17 5 19 0 27 -2 18 -5z m-2681 -155
c-3 -8 -6 -5 -6 6 -1 11 2 17 5 13 3 -3 4 -12 1 -19z m-10 -80 c-3 -7 -5 -2
-5 12 0 14 2 19 5 13 2 -7 2 -19 0 -25z m-10 -75 c-3 -10 -5 -4 -5 12 0 17 2
24 5 18 2 -7 2 -21 0 -30z m-10 -80 c-3 -10 -5 -4 -5 12 0 17 2 24 5 18 2 -7
2 -21 0 -30z m-16090 -699 c-3 -3 -12 -4 -19 -1 -8 3 -5 6 6 6 11 1 17 -2 13
-5z m4097 -57 c44 -75 64 -202 86 -552 10 -164 13 -282 6 -274 -2 2 -9 87 -15
189 -23 367 -52 554 -101 650 -27 53 -8 43 24 -13z m-3985 -20 c-2 -3 -15 10
-28 27 l-24 31 28 -27 c16 -15 27 -29 24 -31z m12082 26 c-12 -20 -14 -14 -5
12 4 9 9 14 11 11 3 -2 0 -13 -6 -23z m-8994 -95 c-2 -13 -4 -5 -4 17 -1 22 1
32 4 23 2 -10 2 -28 0 -40z m8964 25 c-12 -20 -14 -14 -5 12 4 9 9 14 11 11 3
-2 0 -13 -6 -23z m-20 -50 c-12 -20 -14 -14 -5 12 4 9 9 14 11 11 3 -2 0 -13
-6 -23z m-12024 -55 c-3 -7 -5 -2 -5 12 0 14 2 19 5 13 2 -7 2 -19 0 -25z
m3070 10 c-3 -8 -6 -5 -6 6 -1 11 2 17 5 13 3 -3 4 -12 1 -19z m-3080 -60 c-3
-8 -6 -5 -6 6 -1 11 2 17 5 13 3 -3 4 -12 1 -19z m10650 -45 c-2 -16 -4 -5 -4
22 0 28 2 40 4 28 2 -13 2 -35 0 -50z m1344 40 c-12 -20 -14 -14 -5 12 4 9 9
14 11 11 3 -2 0 -13 -6 -23z m-8934 -35 c-3 -8 -6 -5 -6 6 -1 11 2 17 5 13 3
-3 4 -12 1 -19z m8917 -22 c-3 -15 -8 -25 -11 -23 -2 3 -1 17 3 31 3 15 8 25
11 23 2 -3 1 -17 -3 -31z m-10560 -10 c48 -28 72 -58 116 -145 48 -96 60 -170
60 -378 0 -213 11 -199 -122 -157 -101 31 -193 81 -233 126 l-30 33 36 -33 36
-33 27 31 c14 17 26 38 26 46 0 21 -32 81 -90 171 -28 42 -53 87 -57 101 -3
13 -3 63 0 110 l5 86 -20 -25 -20 -24 14 25 c8 14 36 40 62 58 62 41 128 44
190 8z m1633 -8 c-3 -8 -6 -5 -6 6 -1 11 2 17 5 13 3 -3 4 -12 1 -19z m3361
-13 c-3 -3 -9 2 -12 12 -6 14 -5 15 5 6 7 -7 10 -15 7 -18z m887 -5 c10 -11
16 -20 13 -20 -3 0 -13 9 -23 20 -10 11 -16 20 -13 20 3 0 13 -9 23 -20z
m-4258 -22 c-3 -8 -6 -5 -6 6 -1 11 2 17 5 13 3 -3 4 -12 1 -19z m7580 -80
c-3 -7 -5 -2 -5 12 0 14 2 19 5 13 2 -7 2 -19 0 -25z m-1030 0 c-3 -8 -6 -5
-6 6 -1 11 2 17 5 13 3 -3 4 -12 1 -19z m2340 -20 c-3 -8 -6 -5 -6 6 -1 11 2
17 5 13 3 -3 4 -12 1 -19z m-5510 -20 c-3 -7 -5 -2 -5 12 0 14 2 19 5 13 2 -7
2 -19 0 -25z m-5270 -58 c4 -30 6 -58 5 -62 -1 -4 -3 -32 -4 -62 -1 -31 -3
-56 -4 -56 -9 0 -34 119 -34 162 0 112 23 123 37 18z m8430 48 c-3 -8 -6 -5
-6 6 -1 11 2 17 5 13 3 -3 4 -12 1 -19z m-6580 -10 c-3 -8 -6 -5 -6 6 -1 11 2
17 5 13 3 -3 4 -12 1 -19z m7610 -10 c-3 -7 -5 -2 -5 12 0 14 2 19 5 13 2 -7
2 -19 0 -25z m1310 10 c-3 -8 -6 -5 -6 6 -1 11 2 17 5 13 3 -3 4 -12 1 -19z
m-5510 -40 c-3 -7 -5 -2 -5 12 0 14 2 19 5 13 2 -7 2 -19 0 -25z m3160 0 c-3
-8 -6 -5 -6 6 -1 11 2 17 5 13 3 -3 4 -12 1 -19z m2340 0 c-3 -8 -6 -5 -6 6
-1 11 2 17 5 13 3 -3 4 -12 1 -19z m-1310 -55 c-3 -10 -5 -4 -5 12 0 17 2 24
5 18 2 -7 2 -21 0 -30z m1300 15 c-3 -8 -6 -5 -6 6 -1 11 2 17 5 13 3 -3 4
-12 1 -19z m-5500 -10 c-3 -8 -6 -5 -6 6 -1 11 2 17 5 13 3 -3 4 -12 1 -19z
m3160 0 c-3 -8 -6 -5 -6 6 -1 11 2 17 5 13 3 -3 4 -12 1 -19z m7700 -25 c-3
-10 -5 -4 -5 12 0 17 2 24 5 18 2 -7 2 -21 0 -30z m-5370 -15 c-3 -8 -6 -5 -6
6 -1 11 2 17 5 13 3 -3 4 -12 1 -19z m-5500 -10 c-3 -8 -6 -5 -6 6 -1 11 2 17
5 13 3 -3 4 -12 1 -19z m3160 0 c-3 -8 -6 -5 -6 6 -1 11 2 17 5 13 3 -3 4 -12
1 -19z m4550 -10 c-3 -7 -5 -2 -5 12 0 14 2 19 5 13 2 -7 2 -19 0 -25z m-3510
-35 c-3 -10 -5 -4 -5 12 0 17 2 24 5 18 2 -7 2 -21 0 -30z m-4210 5 c-3 -8 -6
-5 -6 6 -1 11 2 17 5 13 3 -3 4 -12 1 -19z m5500 0 c-3 -8 -6 -5 -6 6 -1 11 2
17 5 13 3 -3 4 -12 1 -19z m-2340 -10 c-3 -8 -6 -5 -6 6 -1 11 2 17 5 13 3 -3
4 -12 1 -19z m-10317 -8 c-6 -11 -13 -20 -16 -20 -2 0 0 9 6 20 6 11 13 20 16
20 2 0 0 -9 -6 -20z m3717 -12 c-3 -8 -6 -5 -6 6 -1 11 2 17 5 13 3 -3 4 -12
1 -19z m11150 0 c-3 -8 -6 -5 -6 6 -1 11 2 17 5 13 3 -3 4 -12 1 -19z m-7720
-10 c-3 -8 -6 -5 -6 6 -1 11 2 17 5 13 3 -3 4 -12 1 -19z m5500 -10 c-3 -8 -6
-5 -6 6 -1 11 2 17 5 13 3 -3 4 -12 1 -19z m-2340 -10 c-3 -8 -6 -5 -6 6 -1
11 2 17 5 13 3 -3 4 -12 1 -19z m7730 -30 c-3 -7 -5 -2 -5 12 0 14 2 19 5 13
2 -7 2 -19 0 -25z m-18104 -53 c-20 -41 -39 -73 -41 -71 -4 5 66 146 73 146 3
0 -12 -34 -32 -75z m2021 59 c3 -8 2 -12 -4 -9 -6 3 -10 10 -10 16 0 14 7 11
14 -7z m12903 -6 c-3 -8 -6 -5 -6 6 -1 11 2 17 5 13 3 -3 4 -12 1 -19z m-3500
-145 c-2 -32 -3 -8 -3 52 0 61 1 87 3 58 2 -29 2 -78 0 -110z m1280 125 c-3
-7 -5 -2 -5 12 0 14 2 19 5 13 2 -7 2 -19 0 -25z m-2340 0 c-3 -8 -6 -5 -6 6
-1 11 2 17 5 13 3 -3 4 -12 1 -19z m-3170 -20 c-3 -8 -6 -5 -6 6 -1 11 2 17 5
13 3 -3 4 -12 1 -19z m7720 -30 c-3 -7 -5 -2 -5 12 0 14 2 19 5 13 2 -7 2 -19
0 -25z m-4560 0 c-3 -8 -6 -5 -6 6 -1 11 2 17 5 13 3 -3 4 -12 1 -19z m2340
-10 c-3 -7 -5 -2 -5 12 0 14 2 19 5 13 2 -7 2 -19 0 -25z m-5510 0 c-3 -8 -6
-5 -6 6 -1 11 2 17 5 13 3 -3 4 -12 1 -19z m10888 -18 c-3 -5 -12 -10 -18 -10
-7 0 -6 4 3 10 19 12 23 12 15 0z m-7728 -32 c-3 -7 -5 -2 -5 12 0 14 2 19 5
13 2 -7 2 -19 0 -25z m-3170 0 c-3 -8 -6 -5 -6 6 -1 11 2 17 5 13 3 -3 4 -12
1 -19z m10860 -15 c-3 -10 -5 -4 -5 12 0 17 2 24 5 18 2 -7 2 -21 0 -30z
m-13100 -20 c-3 -10 -5 -2 -5 17 0 19 2 27 5 18 2 -10 2 -26 0 -35z m7750 10
c-3 -10 -5 -4 -5 12 0 17 2 24 5 18 2 -7 2 -21 0 -30z m2220 0 c-3 -10 -5 -4
-5 12 0 17 2 24 5 18 2 -7 2 -21 0 -30z m-9886 -51 c-17 -33 -35 -63 -40 -66
-13 -9 -30 17 -36 55 l-5 34 13 -34 c7 -19 18 -36 23 -38 6 -2 23 24 39 57 16
33 30 58 32 56 3 -2 -9 -31 -26 -64z m-1294 26 c-3 -8 -6 -5 -6 6 -1 11 2 17
5 13 3 -3 4 -12 1 -19z m3440 -10 c-3 -7 -5 -2 -5 12 0 14 2 19 5 13 2 -7 2
-19 0 -25z m3170 0 c-3 -7 -5 -2 -5 12 0 14 2 19 5 13 2 -7 2 -19 0 -25z
m-10406 -15 c-12 -20 -14 -14 -5 12 4 9 9 14 11 11 3 -2 0 -13 -6 -23z m3786
-15 c-3 -8 -6 -5 -6 6 -1 11 2 17 5 13 3 -3 4 -12 1 -19z m-1617 -40 c86 -43
191 -76 293 -93 43 -7 43 9 5 -185 -38 -194 -91 -331 -157 -400 -97 -102 -190
-45 -263 160 -24 65 -35 279 -20 375 9 59 10 59 11 -43 2 -172 42 -313 109
-384 39 -42 45 -34 17 21 -56 111 -78 198 -82 331 -3 92 0 140 11 180 13 50
13 56 -1 67 -9 7 -20 10 -24 7 -5 -3 -9 0 -9 6 0 7 3 10 8 8 4 -2 50 -24 102
-50z m10577 5 c-3 -10 -5 -2 -5 17 0 19 2 27 5 18 2 -10 2 -26 0 -35z m-5520
5 c-3 -7 -5 -2 -5 12 0 14 2 19 5 13 2 -7 2 -19 0 -25z m3170 0 c-3 -7 -5 -2
-5 12 0 14 2 19 5 13 2 -7 2 -19 0 -25z m-10416 -5 c-12 -20 -14 -14 -5 12 4
9 9 14 11 11 3 -2 0 -13 -6 -23z m2076 -15 c-3 -8 -6 -5 -6 6 -1 11 2 17 5 13
3 -3 4 -12 1 -19z m1720 0 c-3 -8 -6 -5 -6 6 -1 11 2 17 5 13 3 -3 4 -12 1
-19z m-1730 -50 c-3 -7 -5 -2 -5 12 0 14 2 19 5 13 2 -7 2 -19 0 -25z m5170
-5 c-3 -10 -5 -4 -5 12 0 17 2 24 5 18 2 -7 2 -21 0 -30z m3170 5 c-3 -7 -5
-2 -5 12 0 14 2 19 5 13 2 -7 2 -19 0 -25z m-6620 -10 c-3 -7 -5 -2 -5 12 0
14 2 19 5 13 2 -7 2 -19 0 -25z m8970 -185 c-2 -37 -3 -9 -3 62 0 72 1 102 3
68 2 -34 2 -93 0 -130z m-8980 125 c-3 -7 -5 -2 -5 12 0 14 2 19 5 13 2 -7 2
-19 0 -25z m6620 -15 c-3 -10 -5 -2 -5 17 0 19 2 27 5 18 2 -10 2 -26 0 -35z
m8900 -5 c-3 -7 -5 -2 -5 12 0 14 2 19 5 13 2 -7 2 -19 0 -25z m-12070 -20
c-3 -8 -6 -5 -6 6 -1 11 2 17 5 13 3 -3 4 -12 1 -19z m-3460 -20 c-3 -7 -5 -2
-5 12 0 14 2 19 5 13 2 -7 2 -19 0 -25z m15593 18 c0 -2 -8 -10 -17 -17 -16
-13 -17 -12 -4 4 13 16 21 21 21 13z m-12077 -105 c14 -11 20 -11 32 -1 8 7
15 10 15 7 0 -3 -14 -16 -31 -28 l-32 -22 -18 22 c-13 15 -19 39 -19 70 l0 46
19 -40 c10 -22 25 -46 34 -54z m12037 75 c0 -3 -4 -8 -10 -11 -5 -3 -10 -1
-10 4 0 6 5 11 10 11 6 0 10 -2 10 -4z m-8933 -158 c-2 -29 -3 -6 -3 52 0 58
1 81 3 53 2 -29 2 -77 0 -105z m-3017 139 c0 -2 -10 -12 -22 -23 l-23 -19 19
23 c18 21 26 27 26 19z m-3613 -54 c-3 -10 -5 -4 -5 12 0 17 2 24 5 18 2 -7 2
-21 0 -30z m15643 13 c0 -2 -8 -10 -17 -17 -16 -13 -17 -12 -4 4 13 16 21 21
21 13z m-40 -29 c0 -2 -10 -12 -22 -23 l-23 -19 19 23 c18 21 26 27 26 19z
m-6519 -25 c-5 -9 -19 -26 -30 -36 -17 -16 -24 -17 -34 -7 -9 10 -9 11 5 6 11
-4 23 3 39 24 25 34 35 41 20 13z m-12954 -24 c-3 -8 -6 -5 -6 6 -1 11 2 17 5
13 3 -3 4 -12 1 -19z m3887 -133 l18 -27 26 24 c24 20 24 19 -2 -10 -52 -57
-66 -42 -71 83 -4 77 -4 78 4 18 4 -34 16 -74 25 -88z m15553 98 c-3 -10 -5
-4 -5 12 0 17 2 24 5 18 2 -7 2 -21 0 -30z m-19450 -15 c-3 -8 -6 -5 -6 6 -1
11 2 17 5 13 3 -3 4 -12 1 -19z m3983 -38 c-6 -11 -13 -20 -16 -20 -2 0 0 9 6
20 6 11 13 20 16 20 2 0 0 -9 -6 -20z m-3993 -22 c-3 -7 -5 -2 -5 12 0 14 2
19 5 13 2 -7 2 -19 0 -25z m19470 -35 c-3 -10 -5 -2 -5 17 0 19 2 27 5 18 2
-10 2 -26 0 -35z m-167 -373 c23 -568 -21 -1133 -120 -1538 -81 -332 -216
-653 -395 -942 -179 -288 -461 -593 -694 -750 -141 -95 -309 -175 -343 -164
-11 3 -36 3 -56 -2 -35 -7 -35 -7 -12 -14 19 -5 9 -9 -42 -15 -213 -24 -349
67 -413 275 -24 80 -36 292 -24 430 39 434 211 836 620 1445 196 292 426 592
683 890 145 167 517 545 671 680 l100 88 6 -39 c4 -22 12 -176 19 -344z
m-19313 338 c-3 -7 -5 -2 -5 12 0 14 2 19 5 13 2 -7 2 -19 0 -25z m19513 -243
c12 -213 12 -268 2 -261 -5 3 -12 90 -15 193 -4 103 -9 213 -12 243 -4 47 -3
50 5 25 6 -16 15 -106 20 -200z m-3 -717 c-2 -29 -3 -8 -3 47 0 55 1 79 3 53
2 -26 2 -71 0 -100z m-10 -245 c-2 -16 -4 -5 -4 22 0 28 2 40 4 28 2 -13 2
-35 0 -50z m-10 -120 c-3 -10 -5 -2 -5 17 0 19 2 27 5 18 2 -10 2 -26 0 -35z
m-10 -85 c-3 -7 -5 -2 -5 12 0 14 2 19 5 13 2 -7 2 -19 0 -25z m-10 -75 c-3
-10 -5 -4 -5 12 0 17 2 24 5 18 2 -7 2 -21 0 -30z m-10 -65 c-3 -7 -5 -2 -5
12 0 14 2 19 5 13 2 -7 2 -19 0 -25z m-10 -60 c-3 -8 -6 -5 -6 6 -1 11 2 17 5
13 3 -3 4 -12 1 -19z m-10 -60 c-3 -8 -6 -5 -6 6 -1 11 2 17 5 13 3 -3 4 -12
1 -19z m-10 -60 c-3 -7 -5 -2 -5 12 0 14 2 19 5 13 2 -7 2 -19 0 -25z m-10
-50 c-3 -8 -6 -5 -6 6 -1 11 2 17 5 13 3 -3 4 -12 1 -19z m-10 -50 c-3 -8 -6
-5 -6 6 -1 11 2 17 5 13 3 -3 4 -12 1 -19z m-10 -40 c-3 -8 -6 -5 -6 6 -1 11
2 17 5 13 3 -3 4 -12 1 -19z m-10 -50 c-3 -8 -6 -5 -6 6 -1 11 2 17 5 13 3 -3
4 -12 1 -19z m-1857 -8 c-6 -11 -13 -20 -16 -20 -2 0 0 9 6 20 6 11 13 20 16
20 2 0 0 -9 -6 -20z m1847 -32 c-3 -8 -6 -5 -6 6 -1 11 2 17 5 13 3 -3 4 -12
1 -19z m-1917 -23 c0 -5 -5 -3 -10 5 -5 8 -10 20 -10 25 0 6 5 3 10 -5 5 -8
10 -19 10 -25z m35 -5 c-15 -29 -35 -40 -35 -19 0 5 4 8 9 5 4 -3 13 6 19 19
7 14 14 25 17 25 3 0 -1 -13 -10 -30z m1872 -12 c-3 -8 -6 -5 -6 6 -1 11 2 17
5 13 3 -3 4 -12 1 -19z"/>
<path d="M16615 14730 c-167 -26 -360 -104 -503 -202 -76 -53 -225 -192 -296
-278 -21 -25 -29 -32 -18 -17 20 27 20 29 2 90 -19 68 -44 122 -60 132 -8 5
-10 -45 -8 -159 2 -91 0 -166 -4 -166 -5 0 -8 124 -8 275 l0 275 -400 0 -400
0 0 -2040 0 -2040 400 0 400 0 3 1333 2 1332 3 -1337 2 -1338 -297 0 c-298 0
-298 0 -273 -20 50 -39 88 -45 290 -45 190 0 197 1 245 25 38 20 55 37 75 75
l25 49 6 1266 c6 1376 2 1300 62 1462 117 322 447 516 837 494 105 -6 238 -33
305 -60 25 -11 33 -12 28 -3 -10 17 66 -45 102 -83 l30 -31 34 38 c19 21 28
30 21 20 -12 -16 -11 -20 1 -28 39 -25 117 9 179 78 62 69 220 287 247 342 29
56 31 133 4 160 -18 18 -17 19 11 57 l28 38 -27 23 c-157 132 -338 218 -551
263 -111 24 -397 35 -497 20z m1015 -404 c0 -2 -8 -10 -17 -17 -16 -13 -17
-12 -4 4 13 16 21 21 21 13z m-30 -40 c0 -2 -8 -10 -17 -17 -16 -13 -17 -12
-4 4 13 16 21 21 21 13z m-1027 -313 c-23 -2 -64 -2 -90 0 -26 2 -7 3 42 3 50
0 71 -1 48 -3z m-196 -9 c-3 -3 -12 -4 -19 -1 -8 3 -5 6 6 6 11 1 17 -2 13 -5z
m316 -1 c-7 -2 -19 -2 -25 0 -7 3 -2 5 12 5 14 0 19 -2 13 -5z m-376 -9 c-3
-3 -12 -4 -19 -1 -8 3 -5 6 6 6 11 1 17 -2 13 -5z m440 0 c-3 -3 -12 -4 -19
-1 -8 3 -5 6 6 6 11 1 17 -2 13 -5z m188 -64 c3 -6 -1 -7 -9 -4 -18 7 -21 14
-7 14 6 0 13 -4 16 -10z m75 -46 c0 -2 -9 0 -20 6 -11 6 -20 13 -20 16 0 2 9
0 20 -6 11 -6 20 -13 20 -16z m240 -18 c0 -2 -8 -10 -17 -17 -16 -13 -17 -12
-4 4 13 16 21 21 21 13z m-1290 -29 c0 -2 -17 -19 -37 -38 l-38 -34 34 38 c33
34 41 42 41 34z m-223 -409 c-3 -8 -6 -5 -6 6 -1 11 2 17 5 13 3 -3 4 -12 1
-19z m-10 -60 c-3 -7 -5 -2 -5 12 0 14 2 19 5 13 2 -7 2 -19 0 -25z"/>
<path d="M19225 14734 c-146 -17 -223 -29 -300 -45 -347 -76 -636 -224 -852
-435 -51 -49 -93 -94 -93 -100 1 -17 582 -406 592 -396 6 6 21 4 40 -5 54 -27
147 -13 268 41 231 103 401 145 626 153 170 6 275 -5 387 -42 40 -13 75 -21
79 -19 13 9 143 -129 181 -192 86 -142 120 -287 121 -519 l1 -160 -710 -5
c-677 -6 -715 -7 -829 -28 -461 -86 -743 -298 -880 -664 -61 -163 -91 -422
-75 -648 33 -468 224 -779 587 -957 54 -27 98 -51 100 -55 2 -4 10 -4 19 -1
10 4 14 2 10 -4 -18 -29 280 -124 498 -160 158 -26 598 -26 735 0 121 23 276
75 377 125 43 22 97 46 121 53 l43 13 -3 108 c-2 59 0 108 5 108 4 0 7 -67 7
-150 l0 -150 380 0 380 0 3 1338 2 1337 3 -1342 2 -1343 -292 0 -293 -1 40
-24 c54 -33 103 -40 296 -40 157 0 168 2 214 26 38 19 55 36 75 74 l25 49 0
1281 c0 1402 1 1386 -60 1620 -27 101 -104 300 -113 290 -3 -3 -20 28 -37 68
-93 215 -251 405 -443 536 -198 134 -492 232 -786 260 -100 10 -379 13 -451 5z
m123 -711 c-10 -2 -26 -2 -35 0 -10 3 -2 5 17 5 19 0 27 -2 18 -5z m240 0
c-10 -2 -26 -2 -35 0 -10 3 -2 5 17 5 19 0 27 -2 18 -5z m-341 -9 c-3 -3 -12
-4 -19 -1 -8 3 -5 6 6 6 11 1 17 -2 13 -5z m410 0 c-3 -3 -12 -4 -19 -1 -8 3
-5 6 6 6 11 1 17 -2 13 -5z m-470 -10 c-3 -3 -12 -4 -19 -1 -8 3 -5 6 6 6 11
1 17 -2 13 -5z m693 -59 c28 -14 50 -28 50 -30 0 -5 -99 42 -109 51 -12 11 15
1 59 -21z m1107 -237 c-3 -8 -6 -5 -6 6 -1 11 2 17 5 13 3 -3 4 -12 1 -19z
m10 -40 c-3 -8 -6 -5 -6 6 -1 11 2 17 5 13 3 -3 4 -12 1 -19z m10 -50 c-3 -8
-6 -5 -6 6 -1 11 2 17 5 13 3 -3 4 -12 1 -19z m10 -50 c-3 -8 -6 -5 -6 6 -1
11 2 17 5 13 3 -3 4 -12 1 -19z m10 -75 c-3 -10 -5 -4 -5 12 0 17 2 24 5 18 2
-7 2 -21 0 -30z m10 -100 c-3 -10 -5 -2 -5 17 0 19 2 27 5 18 2 -10 2 -26 0
-35z m-759 -1450 l-3 -428 -27 -50 c-87 -165 -285 -241 -695 -267 -205 -12
-399 -3 -533 26 -152 33 -305 115 -369 198 -14 18 -18 27 -10 20 14 -11 14 -3
-3 55 -26 91 -28 271 -4 362 55 204 197 343 413 403 75 21 101 22 606 26 309
2 547 -1 573 -6 l44 -10 0 44 0 44 -607 3 -608 2 613 3 613 2 -3 -427z m-1275
410 c-7 -2 -19 -2 -25 0 -7 3 -2 5 12 5 14 0 19 -2 13 -5z m-303 -116 c0 -2
-15 -16 -32 -33 l-33 -29 29 33 c28 30 36 37 36 29z m-163 -479 c-2 -29 -3 -8
-3 47 0 55 1 79 3 53 2 -26 2 -71 0 -100z m10 -100 c-3 -8 -6 -5 -6 6 -1 11 2
17 5 13 3 -3 4 -12 1 -19z m52 -148 c11 -24 11 -24 -3 -6 -9 11 -16 24 -16 30
0 12 5 7 19 -24z m28 -896 c-3 -3 -12 -4 -19 -1 -8 3 -5 6 6 6 11 1 17 -2 13
-5z m80 -20 c-3 -3 -12 -4 -19 -1 -8 3 -5 6 6 6 11 1 17 -2 13 -5z m100 -20
c-3 -3 -12 -4 -19 -1 -8 3 -5 6 6 6 11 1 17 -2 13 -5z m880 0 c-3 -3 -12 -4
-19 -1 -8 3 -5 6 6 6 11 1 17 -2 13 -5z m-820 -10 c-3 -3 -12 -4 -19 -1 -8 3
-5 6 6 6 11 1 17 -2 13 -5z m770 0 c-3 -3 -12 -4 -19 -1 -8 3 -5 6 6 6 11 1
17 -2 13 -5z m-684 -11 c-7 -2 -21 -2 -30 0 -10 3 -4 5 12 5 17 0 24 -2 18 -5z
m620 0 c-7 -2 -19 -2 -25 0 -7 3 -2 5 12 5 14 0 19 -2 13 -5z m-505 -10 c-10
-2 -28 -2 -40 0 -13 2 -5 4 17 4 22 1 32 -1 23 -4z m420 0 c-10 -2 -26 -2 -35
0 -10 3 -2 5 17 5 19 0 27 -2 18 -5z m-170 -10 c-21 -2 -57 -2 -80 0 -24 2 -7
4 37 4 44 0 63 -2 43 -4z"/>
<path d="M24331 9723 c-100 -100 -144 -233 -101 -301 28 -45 79 -66 128 -52
56 14 87 54 106 133 21 84 11 123 -41 163 -33 25 -35 30 -30 70 2 24 2 44 0
44 -3 0 -30 -26 -62 -57z"/>
<path d="M24453 9678 c-7 -9 -3 -22 12 -45 19 -27 25 -30 35 -18 19 22 9 69
-16 73 -11 2 -25 -3 -31 -10z"/>
<path d="M18564 8906 c-3 -8 12 -47 34 -88 22 -40 54 -116 71 -169 33 -100 71
-158 71 -108 0 40 -88 304 -111 333 -29 37 -58 51 -65 32z"/>
<path d="M15160 8736 c0 -12 59 -131 74 -150 29 -36 26 -10 -8 60 -28 59 -66
111 -66 90z"/>
</g>
</svg>
